<?xml version="1.0" encoding="UTF-8"?>
<svg width="31px" height="31px" viewBox="0 0 31 31" version="1.1" xmlns="http://www.w3.org/2000/svg" xmlns:xlink="http://www.w3.org/1999/xlink">
    <g id="Page-1" stroke="none" stroke-width="1" fill="none" fill-rule="evenodd" stroke-linejoin="round">
        <g id="Error---Unknown" transform="translate(-145.000000, -103.000000)" stroke="#873FFF">
            <g id="Group-27" transform="translate(146.000000, 104.000000)">
                <path d="M26,17.5 C26,23.8515 20.851,29 14.5,29 C8.149,29 3,23.8515 3,17.5 C3,11.149 8.149,6 14.5,6 C20.851,6 26,11.149 26,17.5 Z" id="Stroke-1" stroke-linecap="round"></path>
                <path d="M4.39845,12 L24.60145,12" id="Stroke-3" stroke-linecap="round"></path>
                <path d="M14.5,12 L14.5,29" id="Stroke-5" stroke-linecap="round"></path>
                <path d="M9.5,2 C9.5,3.1045 8.6045,4 7.5,4 C6.3955,4 5.5,3.1045 5.5,2 C5.5,0.8955 6.3955,0 7.5,0 C8.6045,0 9.5,0.8955 9.5,2 Z" id="Stroke-7" stroke-linecap="round"></path>
                <path d="M7.5,4 C7.5,5 8.84,7 9.84,7" id="Stroke-9"></path>
                <path d="M19.5,2 C19.5,3.1045 20.3955,4 21.5,4 C22.6045,4 23.5,3.1045 23.5,2 C23.5,0.8955 22.6045,0 21.5,0 C20.3955,0 19.5,0.8955 19.5,2 Z" id="Stroke-11" stroke-linecap="round"></path>
                <path d="M21.5,4 C21.5,5 20.16,7 19.16,7" id="Stroke-13"></path>
                <path d="M0,18 L3,18" id="Stroke-15" stroke-linecap="round"></path>
                <path d="M1,12.5 L3.7045,13.5285" id="Stroke-17" stroke-linecap="round"></path>
                <path d="M1,23.5 L4.066,22.342" id="Stroke-19" stroke-linecap="round"></path>
                <path d="M29,18 L26,18" id="Stroke-21" stroke-linecap="round"></path>
                <path d="M28,12.5 L25.2955,13.5285" id="Stroke-23" stroke-linecap="round"></path>
                <path d="M28,23.5 L24.934,22.342" id="Stroke-25" stroke-linecap="round"></path>
            </g>
        </g>
    </g>
</svg>
