<?xml version="1.0" encoding="UTF-8"?>
<svg width="24px" height="32px" viewBox="0 0 24 32" version="1.1" xmlns="http://www.w3.org/2000/svg" xmlns:xlink="http://www.w3.org/1999/xlink">
    <g id="Page-1" stroke="none" stroke-width="1" fill="none" fill-rule="evenodd" stroke-linecap="round" stroke-linejoin="round">
        <g id="All-feeds-Empty" transform="translate(-148.000000, -144.000000)" stroke="#873FFF">
            <g id="Group-11" transform="translate(149.000000, 145.000000)">
                <path d="M21.7241379,10.862069 C21.7241379,4.73896552 16.9851724,0 10.862069,0 C4.73896552,0 0,4.73896552 0,10.862069 L0,28.9655172 C0,29.5344828 0.465517241,30 1.03448276,30 L2.06896552,30 C2.63793103,30 3.10344828,29.5344828 3.10344828,28.9655172 L3.10344828,27.9310345 C3.10344828,27.362069 3.56896552,26.8965517 4.13793103,26.8965517 L5.17241379,26.8965517 C5.74137931,26.8965517 6.20689655,27.362069 6.20689655,27.9310345 L6.20689655,28.9655172 C6.20689655,29.5344828 6.67241379,30 7.24137931,30 L8.27586207,30 C8.84482759,30 9.31034483,29.5344828 9.31034483,28.9655172 L9.31034483,27.9310345 C9.31034483,27.362069 9.77586207,26.8965517 10.3448276,26.8965517 L11.3793103,26.8965517 C11.9482759,26.8965517 12.4137931,27.362069 12.4137931,27.9310345 L12.4137931,28.9655172 C12.4137931,29.5344828 12.8793103,30 13.4482759,30 L14.4827586,30 C15.0517241,30 15.5172414,29.5344828 15.5172414,28.9655172 L15.5172414,27.9310345 C15.5172414,27.362069 15.9827586,26.8965517 16.5517241,26.8965517 L17.5862069,26.8965517 C18.1551724,26.8965517 18.6206897,27.362069 18.6206897,27.9310345 L18.6206897,28.9655172 C18.6206897,29.5344828 19.0862069,30 19.6551724,30 L20.6896552,30 C21.2586207,30 21.7241379,29.5344828 21.7241379,28.9655172 L21.7241379,10.862069 Z" id="Stroke-1"></path>
                <path d="M16.5517241,13.9655172 C16.5517241,15.387931 15.6206897,16.5517241 14.4827586,16.5517241 C13.3448276,16.5517241 12.4137931,15.387931 12.4137931,13.9655172 L12.4137931,10.862069 C12.4137931,9.43965517 13.3448276,8.27586207 14.4827586,8.27586207 C15.6206897,8.27586207 16.5517241,9.43965517 16.5517241,10.862069 L16.5517241,13.9655172 Z" id="Stroke-3"></path>
                <path d="M9.31034483,13.9655172 C9.31034483,15.387931 8.37931034,16.5517241 7.24137931,16.5517241 C6.10344828,16.5517241 5.17241379,15.387931 5.17241379,13.9655172 L5.17241379,10.862069 C5.17241379,9.43965517 6.10344828,8.27586207 7.24137931,8.27586207 C8.37931034,8.27586207 9.31034483,9.43965517 9.31034483,10.862069 L9.31034483,13.9655172 Z" id="Stroke-5"></path>
                <path d="M7.24137931,13.4482759 C7.24137931,14.0193103 6.77793103,14.4827586 6.20689655,14.4827586 C5.63586207,14.4827586 5.17241379,14.0193103 5.17241379,13.4482759 C5.17241379,12.8772414 5.63586207,12.4137931 6.20689655,12.4137931 C6.77793103,12.4137931 7.24137931,12.8772414 7.24137931,13.4482759 Z" id="Stroke-7"></path>
                <path d="M14.4827586,13.4482759 C14.4827586,14.0193103 14.0193103,14.4827586 13.4482759,14.4827586 C12.8772414,14.4827586 12.4137931,14.0193103 12.4137931,13.4482759 C12.4137931,12.8772414 12.8772414,12.4137931 13.4482759,12.4137931 C14.0193103,12.4137931 14.4827586,12.8772414 14.4827586,13.4482759 Z" id="Stroke-9"></path>
            </g>
        </g>
    </g>
</svg>
