<?xml version="1.0" encoding="UTF-8"?>
<svg width="27px" height="32px" viewBox="0 0 27 32" version="1.1" xmlns="http://www.w3.org/2000/svg" xmlns:xlink="http://www.w3.org/1999/xlink">
    <g id="Page-1" stroke="none" stroke-width="1" fill="none" fill-rule="evenodd" stroke-linecap="round">
        <g id="Favorites-Empty" transform="translate(-147.000000, -144.000000)" stroke="#873FFF">
            <g id="Group-17" transform="translate(147.000000, 145.000000)">
                <path d="M15,26.8960345 L19.137931,26.8960345 C23.2758621,26.8960345 26.3793103,23.2753448 26.3793103,19.1374138 L26.3793103,3.10293103" id="Stroke-1" stroke-linejoin="round"></path>
                <path d="M23.2758621,14.9994828 L23.2758621,18.102931" id="Stroke-3" stroke-linejoin="round"></path>
                <path d="M26.3793103,0 L26.3793103,1.03396552" id="Stroke-5" stroke-linejoin="round"></path>
                <path d="M22.2413793,17.5856897 C22.2413793,19.6546552 21.2068966,20.6891379 19.137931,20.6891379 L17.0689655,20.6891379 C14.4827586,20.6891379 11.8965517,18.102931 11.8965517,15.5167241 L11.8965517,10.3443103 L16.5517241,10.3443103 C20.1724138,10.3443103 22.2413793,12.4132759 22.2413793,15.5167241 L22.2413793,17.5856897 Z" id="Stroke-7" stroke-linejoin="round"></path>
                <path d="M0.517241379,14.9994828 L0.517241379,18.102931" id="Stroke-9" stroke-linejoin="round"></path>
                <path d="M1.55172414,17.5856897 C1.55172414,19.6546552 2.5862069,20.6891379 4.65517241,20.6891379 L6.72413793,20.6891379 C9.31034483,20.6891379 11.8965517,18.102931 11.8965517,15.5167241 L11.8965517,10.3443103 L7.24137931,10.3443103 C3.62068966,10.3443103 1.55172414,12.4132759 1.55172414,15.5167241 L1.55172414,17.5856897 Z" id="Stroke-11" stroke-linejoin="round"></path>
                <path d="M8.79310345,26.8960345 L5.68965517,26.8960345" id="Stroke-13"></path>
                <path d="M15,26.8960345 C15,28.6106897 13.6101724,29.9994828 11.8965517,29.9994828 C10.182931,29.9994828 8.79310345,28.6106897 8.79310345,26.8960345 C8.79310345,25.1818966 10.182931,23.7925862 11.8965517,23.7925862 C13.6101724,23.7925862 15,25.1818966 15,26.8960345 Z" id="Stroke-15"></path>
            </g>
        </g>
    </g>
</svg>
