<?xml version="1.0" encoding="UTF-8"?>
<svg width="20px" height="30px" viewBox="0 0 20 30" version="1.1" xmlns="http://www.w3.org/2000/svg" xmlns:xlink="http://www.w3.org/1999/xlink">
    <g id="Page-1" stroke="none" stroke-width="1" fill="none" fill-rule="evenodd" stroke-linecap="round" stroke-linejoin="round">
        <g id="Intro-—-01" transform="translate(-150.000000, -103.000000)" stroke="#873FFF">
            <g id="Group-7" transform="translate(151.000000, 104.000000)">
                <path d="M18,9 C18,4.0295 13.9705,0 9,0 C4.0295,0 0,4.0295 0,9 C0,14.5 6.035,18.1855 8.2195,19.9045 L6.5,23 L11.5,23 L9.7805,19.9045 C11.965,18.1855 18,14.5 18,9 Z" id="Stroke-1"></path>
                <path d="M9,23 L9,26.5 C9,27.328 9.6715,28 10.5,28 C11.3285,28 12,27.328 12,26.5 C12,25.671 12.6715,25 13.5,25 C14.3285,25 15,25.671 15,26.5 L15,29" id="Stroke-3"></path>
                <path d="M3,9 C3,5.6865 5.6865,3 9,3" id="Stroke-5"></path>
            </g>
        </g>
    </g>
</svg>
